Coordinates
version=1
nRows=9
nColumns=24
inDegrees=yes

Units are S.I. units (second, meters, Newtons, ...)
Angles are in degrees.

endheader
time	pelvis_tilt	pelvis_list	pelvis_rotation	pelvis_tx	pelvis_ty	pelvis_tz	hip_flexion_r	hip_adduction_r	hip_rotation_r	knee_angle_r	ankle_angle_r	subtalar_angle_r	mtp_angle_r	hip_flexion_l	hip_adduction_l	hip_rotation_l	knee_angle_l	ankle_angle_l	subtalar_angle_l	mtp_angle_l	lumbar_extension	lumbar_bending	lumbar_rotation
      4.66500000	     -8.53370556	      3.53964607	     -3.90211153	     -1.98298727	     -0.01267180	      0.43705392	     33.56477000	     -3.99660582	     -5.99200647	    -46.56032141	    -13.97485464	    -16.81681491	      8.08946180	      4.56516496	      5.90716938	     11.92464648	     -9.44952201	      2.84806794	     -1.13710419	      5.11944735	      7.29084203	     -3.05685630	     -3.31065646
      4.67000000	     -8.63253033	      3.39543767	     -3.63085164	     -1.97731917	     -0.01309994	      0.43729160	     33.82185949	     -3.95058105	     -6.32106463	    -44.78169530	    -13.44503921	    -15.99900124	      8.33132380	      4.14646701	      5.74795293	     12.20660199	     -9.24651786	      3.06288065	     -1.12250723	      5.07373721	      7.29358553	     -2.99365257	     -3.58732117
      4.67500000	     -8.73904831	      3.25390938	     -3.36487549	     -1.97165501	     -0.01355349	      0.43754823	     34.04642811	     -3.90584879	     -6.63216168	    -42.92472566	    -12.91040928	    -15.08380638	      8.64125840	      3.75045351	      5.58733800	     12.43916267	     -9.06406920	      3.28244977	     -1.06993207	      5.05370228	      7.30265198	     -2.92995298	     -3.84451222
      4.68000000	     -8.81841533	      3.12137781	     -3.08857999	     -1.96601323	     -0.01398730	      0.43779612	     34.19911003	     -3.87860543	     -6.91665255	    -40.99691912	    -12.34453936	    -14.02540875	      9.01119736	      3.34694031	      5.43999077	     12.61163654	     -8.91213465	      3.49159645	     -0.99042446	      5.02782098	      7.27705287	     -2.87556479	     -4.14903859
      4.68500000	     -8.91152771	      2.99669054	     -2.82675916	     -1.96034593	     -0.01446583	      0.43810975	     34.32844221	     -3.84535346	     -7.15957943	    -39.00958209	    -11.78393525	    -12.88910839	      9.42151148	      2.96276051	      5.29110404	     12.76139471	     -8.76934168	      3.72105873	     -0.86845073	      5.03812577	      7.26769472	     -2.83282568	     -4.38576244
      4.69000000	     -8.99529798	      2.88713563	     -2.56734670	     -1.95465617	     -0.01495702	      0.43845351	     34.40995633	     -3.82662128	     -7.36977537	    -36.97251334	    -11.21830776	    -11.65295437	      9.86754487	      2.57869044	      5.15570386	     12.86610943	     -8.64278894	      3.95036699	     -0.71301001	      5.06575499	      7.25080921	     -2.80558092	     -4.60436264
      4.69500000	     -9.06378378	      2.79216122	     -2.30972115	     -1.94894863	     -0.01545299	      0.43882091	     34.43892592	     -3.82134054	     -7.53663467	    -34.89821666	    -10.66010632	    -10.32852815	     10.31823537	      2.18923771	      5.03488409	     12.92951367	     -8.53424963	      4.17880956	     -0.53032751	      5.10173155	      7.21978840	     -2.79590836	     -4.81257663
      4.70000000	     -9.12186721	      2.71769001	     -2.05217263	     -1.94319311	     -0.01595855	      0.43922786	     34.42081866	     -3.83607810	     -7.66997493	    -32.79710727	    -10.11053091	     -8.94223456	     10.76231611	      1.79587198	      4.93348025	     12.95143940	     -8.44029303	      4.39749854	     -0.32222807	      5.14984093	      7.18193239	     -2.80779442	     -5.00277660
      4.70500000	     -9.16859254	      2.65950620	     -1.80311616	     -1.93738308	     -0.01647082	      0.43965442	     34.35719821	     -3.86564084	     -7.76764593	    -30.68019235	     -9.58951096	     -7.51292084	     11.17250713	      1.39362860	      4.84800663	     12.94277956	     -8.35680001	      4.60407406	     -0.09430267	      5.20489059	      7.14209222	     -2.83153117	     -5.18182009
